<?xml version="1.0" encoding="UTF-8" standalone="no"?>
<!DOCTYPE svg PUBLIC "-//W3C//DTD SVG 1.1//EN" "http://www.w3.org/Graphics/SVG/1.1/DTD/svg11.dtd">
<svg width="100%" height="100%" viewBox="0 0 512 238" version="1.1" xmlns="http://www.w3.org/2000/svg" xmlns:xlink="http://www.w3.org/1999/xlink" xml:space="preserve" xmlns:serif="http://www.serif.com/" style="fill-rule:evenodd;clip-rule:evenodd;stroke-linejoin:round;stroke-miterlimit:1.41421;">
    <g id="Artboard1" transform="matrix(1,0,0,1.56551,0,-347.894)">
        <g transform="matrix(1.32642,0,0,0.847276,-83.5648,81.861)">
            <path d="M124.9,327.1L122,324.2L122,292.3L122,260.3L105.8,251.5C96.8,246.6 87.6,241.6 85.3,240.3C83,239 80.9,238 80.5,238C80.2,238 80.1,248.5 80.2,261.2L80.5,284.4L97,293.5C114.3,303 116.9,305.3 115.6,310.3C114.7,313.9 111.2,317 107.8,317C104.6,317 67.5,297 64.8,293.8C63.2,292 63,288.6 63,255.8L63,219.9L65.5,217.5C67,215.9 69.1,215 70.9,215C74,215 132.7,246.4 136.5,250.1C138.4,251.9 138.5,253.7 139,279.5L139.5,307L160.3,295.4L181,283.7L180.8,255.8L180.5,227.8L163.5,218.4C154.2,213.2 142.9,206.9 138.4,204.5L130.4,200.1L113.9,209.2C103.3,215 96.4,218.3 94.3,218.3C87.6,218.5 83.4,210.1 87.8,205.2C88.7,204.2 96.9,199.2 106,194.3C127.1,182.7 128.5,182 130.6,182C132.9,182 193.2,215.4 195.4,217.9C196.9,219.6 197.1,223.5 197.3,255.8C197.5,290.1 197.4,291.9 195.6,293.9C194.5,295.1 188.4,298.9 182.1,302.5C175.7,306 162,313.6 151.5,319.4C141.1,325.2 131.5,330 130.2,330C128.9,330 126.5,328.7 124.9,327.1Z" style="fill:url(#_Linear1);fill-rule:nonzero;"/>
        </g>
        <g transform="matrix(1,0,0,0.638769,0,222.224)">
            <path d="M189.678,75.919L192.994,72.736L196.177,69.42L282.792,69.42L286.772,73.399C290.088,76.848 290.618,78.174 289.955,81.755C289.425,84.143 287.965,87.194 286.374,88.653C283.986,91.173 281.599,91.305 247.642,91.969L211.564,92.632L211.564,147.015L247.642,147.678C283.058,148.342 283.854,148.342 286.772,151.392C289.822,154.31 289.822,154.974 290.22,190.522C290.486,210.285 290.22,227.927 289.822,229.518C288.098,236.416 278.548,240.262 273.11,236.15C268.467,232.569 267.936,229.12 267.936,199.541L267.936,170.227L196.177,170.227L192.994,166.911L189.678,163.728L189.678,75.919ZM411.19,77.113L415.036,73.266L418.883,69.42L505.498,69.42L508.682,72.736L511.998,75.919L511.998,163.728L508.682,166.911L505.498,170.227L418.883,170.227L415.036,166.381L411.19,162.534L411.19,77.113ZM379.356,91.969L344.869,91.969C305.474,91.969 303.617,91.571 301.097,82.949C300.169,79.766 299.771,65.971 300.036,43.156L300.434,8.139L304.148,4.956C309.056,0.844 314.892,0.844 319.004,5.088L322.32,8.272L322.32,69.42L394.212,69.42L401.905,77.113L401.905,162.534L398.058,166.381L394.212,170.227L350.97,170.227C308.127,170.227 307.862,170.227 304.546,167.309C300.832,163.993 300.036,160.81 301.495,155.372C303.352,148.342 306.801,147.678 344.869,147.678L379.356,147.678L379.356,91.969ZM433.739,147.678L461.992,147.413L490.112,147.015L490.112,92.632L461.992,92.234L433.739,91.969L433.739,147.678Z" style="fill-rule:nonzero;"/>
        </g>
    </g>
    <defs>
        <linearGradient id="_Linear1" x1="0" y1="0" x2="1" y2="0" gradientUnits="userSpaceOnUse" gradientTransform="matrix(134.374,0,0,134.374,63,256)"><stop offset="0" style="stop-color:rgb(146,172,208);stop-opacity:1"/><stop offset="1" style="stop-color:rgb(156,212,217);stop-opacity:1"/></linearGradient>
    </defs>
</svg>
